# xmcd
#
# Track frame offsets:
#	183
#	11655
#	25095
#	37560
#	50123
#	63698
#	73573
#	86555
#	97270
#	106860
#	117748
#	134720
#	150198
#	163323
#	176608
#	190638
#	203613
#	212203
#	222990
#
# Disc length: 3147 seconds
#
# Revision: 2
# Processed by: cddbd v1.4PL0 Copyright (c) Steve Scherf et al.
# Submitted via: MusicWizard 6.0.0
#
DISCID=120c4913
DTITLE=Various Artist - ALL TIME 75_ COUNTRY and WESTERN CD4
DYEAR=1900
DGENRE=Country
TTITLE0=FREDDY FEBDER - BEFORE THE NEXT TEARDROP FALLS
TTITLE1=PATSY CLINE - SHE'S GOT YOU
TTITLE2=JOHNNY CASH - FOLSOM PRISON BLUES
TTITLE3=FARON YOUNG - IT'S FOUR IN THE MORNING
TTITLE4=WILLIE NELSON - YOU'LL ALWAYS HAVE SOMEONE
TTITLE5=JOHNNY CASH - BORN TO LOOSE
TTITLE6=DON WILLIAMS - WHERE DO WE GO FROM HERE
TTITLE7=WAYLON JENNINGS - SALLY WAS A GOOD OLD GIRL
TTITLE8=FLATT and SCRUGGS - FOGGY MOUNTAIN BREAKDOWN
TTITLE9=FARON YOUNG - WIND ME UP
TTITLE10=LYNN ANDERSON - BLUE BAYOU
TTITLE11=ANNE MURRAY - THERE GOES MY EVERYTHING
TTITLE12=DONNA FARGO - DADDY
TTITLE13=DON WILLIAMS - RUBY TUESDAY
TTITLE14=B.J. THOMAS - I'M SO LONESOME I COULD CRY
TTITLE15=FREDDY FENDER - SILVER WINGS
TTITLE16=WAYLON JENNINGS - ABILENE
TTITLE17=SAMMI SMITH - HELP ME MAKE IT THROUGH THE NIGHT
TTITLE18=LYNN ANDERSON - ROSE GARDEN
EXTD=ID3G:   2
EXTT0=
EXTT1=
EXTT2=
EXTT3=
EXTT4=
EXTT5=
EXTT6=
EXTT7=
EXTT8=
EXTT9=
EXTT10=
EXTT11=
EXTT12=
EXTT13=
EXTT14=
EXTT15=
EXTT16=
EXTT17=
EXTT18=
PLAYORDER=
